<svg width="21" height="21" viewBox="0 0 21 21" fill="none" xmlns="http://www.w3.org/2000/svg">
<g clip-path="url(#clip0_1245_8313)">
<path d="M11.2937 -1.45677C11.5191 -1.68219 11.8846 -1.68219 12.11 -1.45677C12.3354 -1.23135 12.3354 -0.865868 12.11 -0.640445L-0.134885 11.6045C-0.360307 11.8299 -0.725789 11.8299 -0.951212 11.6045C-1.17663 11.379 -1.17663 11.0135 -0.951211 10.7881L11.2937 -1.45677Z" fill="#461DBA"/>
<path d="M16.1916 3.44119C16.4171 3.21576 16.7826 3.21577 17.008 3.44119C17.2334 3.66661 17.2334 4.03209 17.008 4.25751L4.76307 16.5024C4.53765 16.7278 4.17217 16.7278 3.94675 16.5024C3.72133 16.277 3.72133 15.9115 3.94675 15.6861L16.1916 3.44119Z" fill="#461DBA"/>
<path d="M21.0896 8.33915C21.315 8.11372 21.6805 8.11372 21.9059 8.33915C22.1314 8.56457 22.1314 8.93005 21.9059 9.15547L9.66103 21.4004C9.43561 21.6258 9.07013 21.6258 8.84471 21.4004C8.61928 21.1749 8.61928 20.8095 8.84471 20.584L21.0896 8.33915Z" fill="#461DBA"/>
<path d="M11.2937 -1.45677C11.5191 -1.68219 11.8846 -1.68219 12.11 -1.45677C12.3354 -1.23135 12.3354 -0.865868 12.11 -0.640445L-0.134885 11.6045C-0.360307 11.8299 -0.725789 11.8299 -0.951212 11.6045C-1.17663 11.379 -1.17663 11.0135 -0.951211 10.7881L11.2937 -1.45677Z" stroke="#461DBA" stroke-width="2"/>
<path d="M16.1916 3.44119C16.4171 3.21576 16.7826 3.21577 17.008 3.44119C17.2334 3.66661 17.2334 4.03209 17.008 4.25751L4.76307 16.5024C4.53765 16.7278 4.17217 16.7278 3.94675 16.5024C3.72133 16.277 3.72133 15.9115 3.94675 15.6861L16.1916 3.44119Z" stroke="#461DBA" stroke-width="2"/>
<path d="M21.0896 8.33915C21.315 8.11372 21.6805 8.11372 21.9059 8.33915C22.1314 8.56457 22.1314 8.93005 21.9059 9.15547L9.66103 21.4004C9.43561 21.6258 9.07013 21.6258 8.84471 21.4004C8.61928 21.1749 8.61928 20.8095 8.84471 20.584L21.0896 8.33915Z" stroke="#461DBA" stroke-width="2"/>
</g>
<g clip-path="url(#clip1_1245_8313)">
<path d="M10.0657 -1.45677C9.84027 -1.68219 9.47478 -1.68219 9.24936 -1.45677C9.02394 -1.23135 9.02394 -0.865868 9.24936 -0.640445L21.4943 11.6045C21.7197 11.8299 22.0852 11.8299 22.3106 11.6045C22.536 11.379 22.536 11.0135 22.3106 10.7881L10.0657 -1.45677Z" fill="#461DBA"/>
<path d="M5.16773 3.44119C4.94231 3.21576 4.57682 3.21577 4.3514 3.44119C4.12598 3.66661 4.12598 4.03209 4.3514 4.25751L16.5963 16.5024C16.8217 16.7278 17.1872 16.7278 17.4126 16.5024C17.638 16.277 17.638 15.9115 17.4126 15.6861L5.16773 3.44119Z" fill="#461DBA"/>
<path d="M0.26977 8.33915C0.0443467 8.11372 -0.321135 8.11372 -0.546557 8.33915C-0.771979 8.56457 -0.77198 8.93005 -0.546557 9.15547L11.6983 21.4004C11.9238 21.6258 12.2892 21.6258 12.5147 21.4004C12.7401 21.1749 12.7401 20.8095 12.5147 20.584L0.26977 8.33915Z" fill="#461DBA"/>
<path d="M10.0657 -1.45677C9.84027 -1.68219 9.47478 -1.68219 9.24936 -1.45677C9.02394 -1.23135 9.02394 -0.865868 9.24936 -0.640445L21.4943 11.6045C21.7197 11.8299 22.0852 11.8299 22.3106 11.6045C22.536 11.379 22.536 11.0135 22.3106 10.7881L10.0657 -1.45677Z" stroke="#461DBA" stroke-width="2"/>
<path d="M5.16773 3.44119C4.94231 3.21576 4.57682 3.21577 4.3514 3.44119C4.12598 3.66661 4.12598 4.03209 4.3514 4.25751L16.5963 16.5024C16.8217 16.7278 17.1872 16.7278 17.4126 16.5024C17.638 16.277 17.638 15.9115 17.4126 15.6861L5.16773 3.44119Z" stroke="#461DBA" stroke-width="2"/>
<path d="M0.26977 8.33915C0.0443467 8.11372 -0.321135 8.11372 -0.546557 8.33915C-0.771979 8.56457 -0.77198 8.93005 -0.546557 9.15547L11.6983 21.4004C11.9238 21.6258 12.2892 21.6258 12.5147 21.4004C12.7401 21.1749 12.7401 20.8095 12.5147 20.584L0.26977 8.33915Z" stroke="#461DBA" stroke-width="2"/>
</g>
<defs>
<clipPath id="clip0_1245_8313">
<rect width="20.7803" height="7.50399" fill="white" transform="translate(0.679688 14.8696) rotate(-45)"/>
</clipPath>
<clipPath id="clip1_1245_8313">
<rect width="20.7803" height="7.50399" fill="white" transform="matrix(-0.707107 -0.707107 -0.707107 0.707107 20.6797 14.8696)"/>
</clipPath>
</defs>
</svg>
