<svg width="178" height="28" fill="none" xmlns="http://www.w3.org/2000/svg"><path d="M2 14.415h8.381a.04.04 0 00.038-.026l3.95-10.27a.04.04 0 01.076.004l4.736 17.762c.01.04.066.04.077 0L23.19 8.52a.04.04 0 01.076-.004l2.35 5.874a.04.04 0 00.037.025h5.578" stroke="#461DBA" stroke-width="3" stroke-linecap="round"/><path d="M48.37 22.24c-.912 0-1.744-.168-2.496-.504a6.44 6.44 0 01-1.968-1.416 6.48 6.48 0 01-1.272-2.064 6.778 6.778 0 01-.456-2.472c0-.88.152-1.712.456-2.496a6.839 6.839 0 011.296-2.064 6.44 6.44 0 011.968-1.416 5.758 5.758 0 012.472-.528c.896 0 1.72.176 2.472.528a6.077 6.077 0 011.968 1.416c.56.592.992 1.28 1.296 2.064.32.784.48 1.616.48 2.496 0 .864-.152 1.688-.456 2.472a6.268 6.268 0 01-1.296 2.064 6.077 6.077 0 01-1.968 1.416c-.752.336-1.584.504-2.496.504zm-4.536-6.432c0 .704.12 1.36.36 1.968.24.592.56 1.12.96 1.584.416.448.896.8 1.44 1.056.56.256 1.152.384 1.776.384.624 0 1.208-.128 1.752-.384a4.9 4.9 0 001.464-1.08 5.3 5.3 0 001.344-3.576c0-.688-.12-1.336-.36-1.944a4.938 4.938 0 00-.984-1.608 4.41 4.41 0 00-1.464-1.08 3.864 3.864 0 00-1.752-.408c-.624 0-1.208.136-1.752.408a4.486 4.486 0 00-1.44 1.08 5.23 5.23 0 00-.984 1.632 5.312 5.312 0 00-.36 1.968zM63.22 22.24c-1.056 0-1.992-.264-2.808-.792a6.568 6.568 0 01-1.944-2.04v7.704h-1.632V9.496H58.3v2.424a5.946 5.946 0 011.992-1.896 5.035 5.035 0 012.664-.744c.864 0 1.656.184 2.376.552a5.87 5.87 0 011.872 1.44c.528.592.936 1.28 1.224 2.064a6.65 6.65 0 01.456 2.424c0 .88-.136 1.712-.408 2.496A6.252 6.252 0 0167.3 20.32a5.57 5.57 0 01-1.8 1.416c-.688.336-1.448.504-2.28.504zm-.456-1.44c.672 0 1.28-.144 1.824-.432a4.463 4.463 0 001.416-1.128c.4-.48.704-1.016.912-1.608a5.745 5.745 0 00.312-1.872 5.3 5.3 0 00-1.344-3.528 4.633 4.633 0 00-1.488-1.104 4.119 4.119 0 00-1.824-.408c-.416 0-.856.088-1.32.264-.448.16-.872.384-1.272.672-.384.272-.72.6-1.008.984-.272.368-.44.76-.504 1.176v3.84c.192.448.432.864.72 1.248.304.384.64.72 1.008 1.008.384.272.792.488 1.224.648.432.16.88.24 1.344.24zm14.24.6a7.45 7.45 0 01-.432.192 6.46 6.46 0 01-.624.24c-.24.08-.512.152-.816.216a4.65 4.65 0 01-.96.096A3.49 3.49 0 0173.164 22a2.46 2.46 0 01-.84-.432 2.31 2.31 0 01-.576-.768 2.44 2.44 0 01-.216-1.056v-8.952h-1.728V9.496h1.728V5.272h1.632v4.224h2.88v1.296h-2.88v8.496c.032.464.192.808.48 1.032.304.208.648.312 1.032.312.464 0 .872-.072 1.224-.216.352-.16.576-.272.672-.336l.432 1.32zm1.56.6V9.496h1.631V22h-1.632zm0-15.12v-2.4h1.631v2.4h-1.632zM101.91 22h-1.632v-6.984c0-1.456-.232-2.528-.696-3.216-.464-.688-1.152-1.032-2.064-1.032-.48 0-.936.088-1.368.264a4.407 4.407 0 00-1.176.744c-.352.32-.664.704-.936 1.152-.272.432-.48.912-.624 1.44V22h-1.632v-6.984c0-1.488-.224-2.568-.672-3.24-.448-.672-1.136-1.008-2.064-1.008-.944 0-1.784.328-2.52.984-.736.656-1.264 1.52-1.584 2.592V22H83.31V9.496h1.488v2.832c.512-.96 1.184-1.704 2.016-2.232a4.938 4.938 0 012.76-.816c1.056 0 1.896.296 2.52.888.64.592 1.032 1.368 1.176 2.328 1.168-2.144 2.776-3.216 4.824-3.216.704 0 1.296.128 1.776.384.496.256.888.624 1.176 1.104.304.464.52 1.032.648 1.704.144.656.216 1.392.216 2.208V22zm6.118.24a4.678 4.678 0 01-1.656-.288 4.527 4.527 0 01-1.32-.84 3.868 3.868 0 01-.864-1.224 3.821 3.821 0 01-.312-1.536c0-.544.128-1.048.384-1.512a3.66 3.66 0 011.08-1.2 5.101 5.101 0 011.656-.768 7.327 7.327 0 012.112-.288c.64 0 1.288.056 1.944.168.656.112 1.24.272 1.752.48v-1.128c0-1.104-.312-1.976-.936-2.616-.624-.656-1.488-.984-2.592-.984-.64 0-1.296.128-1.968.384a9.491 9.491 0 00-2.04 1.104l-.576-1.08c1.616-1.088 3.184-1.632 4.704-1.632 1.568 0 2.8.44 3.696 1.32.896.88 1.344 2.096 1.344 3.648v5.64c0 .448.2.672.6.672V22a3.89 3.89 0 01-.624.072c-.416 0-.744-.104-.984-.312-.224-.208-.344-.496-.36-.864l-.048-.984a5.65 5.65 0 01-2.184 1.728c-.864.4-1.8.6-2.808.6zm.384-1.248c.848 0 1.624-.16 2.328-.48.72-.32 1.264-.744 1.632-1.272.144-.144.248-.296.312-.456.08-.176.12-.336.12-.48v-2.04a9.929 9.929 0 00-3.48-.648c-1.152 0-2.088.24-2.808.72-.72.48-1.08 1.112-1.08 1.896 0 .384.072.744.216 1.08.16.336.368.632.624.888.272.24.592.432.96.576.368.144.76.216 1.176.216zm9.143-16.512h1.632v14.688c0 .464.128.832.384 1.104.256.256.616.384 1.08.384a4.12 4.12 0 001.296-.264l.288 1.32c-.304.128-.68.232-1.128.312-.432.08-.808.12-1.128.12-.752 0-1.344-.208-1.776-.624-.432-.432-.648-1.032-.648-1.8V4.48z" fill="#461DBA"/><path d="M147.029 22h-1.632v-6.984c0-1.456-.232-2.528-.696-3.216-.464-.688-1.152-1.032-2.064-1.032-.48 0-.936.088-1.368.264a4.407 4.407 0 00-1.176.744c-.352.32-.664.704-.936 1.152-.272.432-.48.912-.624 1.44V22h-1.632v-6.984c0-1.488-.224-2.568-.672-3.24-.448-.672-1.136-1.008-2.064-1.008-.944 0-1.784.328-2.52.984-.736.656-1.264 1.52-1.584 2.592V22h-1.632V9.496h1.488v2.832c.512-.96 1.184-1.704 2.016-2.232a4.938 4.938 0 012.76-.816c1.056 0 1.896.296 2.52.888.64.592 1.032 1.368 1.176 2.328 1.168-2.144 2.776-3.216 4.824-3.216.704 0 1.296.128 1.776.384.496.256.888.624 1.176 1.104.304.464.52 1.032.648 1.704.144.656.216 1.392.216 2.208V22zm8.374.24a6.218 6.218 0 01-2.52-.504 6.44 6.44 0 01-1.968-1.416c-.56-.608-1-1.304-1.32-2.088a6.91 6.91 0 01-.456-2.52c0-.88.152-1.704.456-2.472a6.532 6.532 0 011.296-2.04 6.045 6.045 0 011.992-1.392 5.918 5.918 0 012.496-.528c.912 0 1.744.176 2.496.528.768.336 1.424.8 1.968 1.392a6.59 6.59 0 011.728 4.488v.384a.966.966 0 01-.024.264h-10.704c.048.672.2 1.296.456 1.872.272.56.616 1.048 1.032 1.464.416.416.888.744 1.416.984a4.494 4.494 0 002.928.168c.4-.112.768-.264 1.104-.456.336-.192.64-.424.912-.696.272-.288.48-.6.624-.936l1.416.384a4.313 4.313 0 01-.816 1.272c-.352.368-.76.696-1.224.984-.464.272-.976.48-1.536.624-.56.16-1.144.24-1.752.24zm4.608-7.152a4.802 4.802 0 00-.48-1.824 4.662 4.662 0 00-1.008-1.44c-.4-.4-.872-.712-1.416-.936a4.317 4.317 0 00-1.704-.336 4.565 4.565 0 00-3.168 1.272c-.4.4-.728.88-.984 1.44a5.642 5.642 0 00-.432 1.824h9.192zm8.734 7.152a5.49 5.49 0 01-2.4-.528 6.268 6.268 0 01-1.896-1.44 6.79 6.79 0 01-1.248-2.04 7.044 7.044 0 01-.432-2.448c0-.88.144-1.712.432-2.496.288-.8.68-1.496 1.176-2.088a5.622 5.622 0 011.8-1.392 5.08 5.08 0 012.304-.528c1.056 0 1.992.28 2.808.84.816.544 1.456 1.208 1.92 1.992V4.48h1.632v15.408c0 .448.192.672.576.672V22c-.24.048-.432.072-.576.072-.384 0-.72-.12-1.008-.36-.288-.256-.432-.56-.432-.912v-1.224a5.468 5.468 0 01-2.016 1.944c-.848.48-1.728.72-2.64.72zm.36-1.44c.4 0 .824-.08 1.272-.24.464-.16.896-.376 1.296-.648.4-.288.736-.616 1.008-.984.288-.384.464-.792.528-1.224V13.84a4.123 4.123 0 00-.696-1.2 5.26 5.26 0 00-1.056-1.008 4.709 4.709 0 00-1.248-.672 3.909 3.909 0 00-1.32-.24c-.672 0-1.28.144-1.824.432a4.677 4.677 0 00-1.416 1.152c-.384.464-.68 1-.888 1.608a5.745 5.745 0 00-.312 1.872 5.3 5.3 0 001.344 3.528 4.9 4.9 0 001.464 1.08 4.274 4.274 0 001.848.408z" fill="#0FA4AE"/></svg>