<svg width="40" height="40" viewBox="0 0 40 40" fill="none" xmlns="http://www.w3.org/2000/svg">
<circle cx="20" cy="20" r="20" fill="white"/>
<g clip-path="url(#clip0_1245_8901)">
<path d="M20.5156 5.77637C20.787 5.50496 21.2271 5.50496 21.4985 5.77637C21.7699 6.04778 21.7699 6.48782 21.4985 6.75923L6.75555 21.5022C6.48414 21.7736 6.04409 21.7736 5.77268 21.5022C5.50127 21.2308 5.50127 20.7907 5.77268 20.5193L20.5156 5.77637Z" fill="#461DBA"/>
<path d="M26.4128 11.6735C26.6842 11.4021 27.1243 11.4021 27.3957 11.6735C27.6671 11.945 27.6671 12.385 27.3957 12.6564L12.6527 27.3994C12.3813 27.6708 11.9413 27.6708 11.6699 27.3994C11.3984 27.1279 11.3984 26.6879 11.6699 26.4165L26.4128 11.6735Z" fill="#461DBA"/>
<path d="M32.31 17.5707C32.5814 17.2993 33.0214 17.2993 33.2928 17.5707C33.5643 17.8421 33.5643 18.2822 33.2928 18.5536L18.5499 33.2965C18.2785 33.5679 17.8384 33.5679 17.567 33.2965C17.2956 33.0251 17.2956 32.5851 17.567 32.3137L32.31 17.5707Z" fill="#461DBA"/>
<path d="M20.5156 5.77637C20.787 5.50496 21.2271 5.50496 21.4985 5.77637C21.7699 6.04778 21.7699 6.48782 21.4985 6.75923L6.75555 21.5022C6.48414 21.7736 6.04409 21.7736 5.77268 21.5022C5.50127 21.2308 5.50127 20.7907 5.77268 20.5193L20.5156 5.77637Z" stroke="#461DBA" stroke-width="2"/>
<path d="M26.4128 11.6735C26.6842 11.4021 27.1243 11.4021 27.3957 11.6735C27.6671 11.945 27.6671 12.385 27.3957 12.6564L12.6527 27.3994C12.3813 27.6708 11.9413 27.6708 11.6699 27.3994C11.3984 27.1279 11.3984 26.6879 11.6699 26.4165L26.4128 11.6735Z" stroke="#461DBA" stroke-width="2"/>
<path d="M32.31 17.5707C32.5814 17.2993 33.0214 17.2993 33.2928 17.5707C33.5643 17.8421 33.5643 18.2822 33.2928 18.5536L18.5499 33.2965C18.2785 33.5679 17.8384 33.5679 17.567 33.2965C17.2956 33.0251 17.2956 32.5851 17.567 32.3137L32.31 17.5707Z" stroke="#461DBA" stroke-width="2"/>
</g>
<g clip-path="url(#clip1_1245_8901)">
<path d="M19.0469 5.77637C18.7755 5.50496 18.3354 5.50496 18.064 5.77637C17.7926 6.04778 17.7926 6.48782 18.064 6.75923L32.807 21.5022C33.0784 21.7736 33.5184 21.7736 33.7898 21.5022C34.0612 21.2308 34.0612 20.7907 33.7898 20.5193L19.0469 5.77637Z" fill="#461DBA"/>
<path d="M13.1497 11.6735C12.8783 11.4021 12.4382 11.4021 12.1668 11.6735C11.8954 11.945 11.8954 12.385 12.1668 12.6564L26.9098 27.3994C27.1812 27.6708 27.6212 27.6708 27.8926 27.3994C28.1641 27.1279 28.1641 26.6879 27.8926 26.4165L13.1497 11.6735Z" fill="#461DBA"/>
<path d="M7.25252 17.5707C6.98111 17.2993 6.54107 17.2993 6.26966 17.5707C5.99825 17.8421 5.99825 18.2822 6.26966 18.5536L21.0126 33.2965C21.284 33.5679 21.7241 33.5679 21.9955 33.2965C22.2669 33.0251 22.2669 32.5851 21.9955 32.3137L7.25252 17.5707Z" fill="#461DBA"/>
<path d="M19.0469 5.77637C18.7755 5.50496 18.3354 5.50496 18.064 5.77637C17.7926 6.04778 17.7926 6.48782 18.064 6.75923L32.807 21.5022C33.0784 21.7736 33.5184 21.7736 33.7898 21.5022C34.0612 21.2308 34.0612 20.7907 33.7898 20.5193L19.0469 5.77637Z" stroke="#461DBA" stroke-width="2"/>
<path d="M13.1497 11.6735C12.8783 11.4021 12.4382 11.4021 12.1668 11.6735C11.8954 11.945 11.8954 12.385 12.1668 12.6564L26.9098 27.3994C27.1812 27.6708 27.6212 27.6708 27.8926 27.3994C28.1641 27.1279 28.1641 26.6879 27.8926 26.4165L13.1497 11.6735Z" stroke="#461DBA" stroke-width="2"/>
<path d="M7.25252 17.5707C6.98111 17.2993 6.54107 17.2993 6.26966 17.5707C5.99825 17.8421 5.99825 18.2822 6.26966 18.5536L21.0126 33.2965C21.284 33.5679 21.7241 33.5679 21.9955 33.2965C22.2669 33.0251 22.2669 32.5851 21.9955 32.3137L7.25252 17.5707Z" stroke="#461DBA" stroke-width="2"/>
</g>
<defs>
<clipPath id="clip0_1245_8901">
<rect width="25.0196" height="9.03486" fill="white" transform="translate(7.74219 25.4336) rotate(-45)"/>
</clipPath>
<clipPath id="clip1_1245_8901">
<rect width="25.0196" height="9.03486" fill="white" transform="matrix(-0.707107 -0.707107 -0.707107 0.707107 31.8203 25.4336)"/>
</clipPath>
</defs>
</svg>
