<svg width="39" height="40" viewBox="0 0 39 40" fill="none" xmlns="http://www.w3.org/2000/svg">
<path fill-rule="evenodd" clip-rule="evenodd" d="M19.5 39.0244C30.2696 39.0244 39 30.5069 39 20C39 9.4931 30.2696 0.975586 19.5 0.975586C8.73045 0.975586 0 9.4931 0 20C0 30.5069 8.73045 39.0244 19.5 39.0244ZM16.2987 7.86962C15.9034 7.48394 15.2703 7.49176 14.8846 7.88708C14.4989 8.28239 14.5067 8.91551 14.902 9.30118L25.8684 20L14.902 30.6989C14.5067 31.0846 14.4989 31.7177 14.8846 32.113C15.2703 32.5083 15.9034 32.5161 16.2987 32.1304L27.9987 20.7158C28.1916 20.5276 28.3004 20.2695 28.3004 20C28.3004 19.7305 28.1916 19.4724 27.9987 19.2843L16.2987 7.86962Z" fill="url(#paint0_linear_59_47)"/>
<defs>
<linearGradient id="paint0_linear_59_47" x1="0" y1="20" x2="39" y2="20" gradientUnits="userSpaceOnUse">
<stop stop-color="#11275F"/>
<stop offset="1" stop-color="#1F5EDB"/>
</linearGradient>
</defs>
</svg>
