<svg width="39" height="39" viewBox="0 0 39 39" fill="none" xmlns="http://www.w3.org/2000/svg">
<path fill-rule="evenodd" clip-rule="evenodd" d="M19.5 38.0488C30.2696 38.0488 39 29.5313 39 19.0244C39 8.51751 30.2696 0 19.5 0C8.73045 0 0 8.51751 0 19.0244C0 29.5313 8.73045 38.0488 19.5 38.0488ZM16.2987 6.89403C15.9034 6.50836 15.2703 6.51617 14.8846 6.91149C14.4989 7.30681 14.5067 7.93992 14.902 8.3256L25.8684 19.0244L14.902 29.7233C14.5067 30.109 14.4989 30.7421 14.8846 31.1374C15.2703 31.5327 15.9034 31.5405 16.2987 31.1549L27.9987 19.7402C28.1916 19.552 28.3004 19.2939 28.3004 19.0244C28.3004 18.755 28.1916 18.4969 27.9987 18.3087L16.2987 6.89403Z" fill="white"/>
</svg>
