<?xml version="1.0" encoding="utf-8"?>
<!-- Generator: Adobe Illustrator 27.5.0, SVG Export Plug-In . SVG Version: 6.00 Build 0)  -->
<svg version="1.1" id="Layer_1" xmlns="http://www.w3.org/2000/svg" xmlns:xlink="http://www.w3.org/1999/xlink" x="0px" y="0px"
	 viewBox="0 0 4000 4000" style="enable-background:new 0 0 4000 4000;" xml:space="preserve">
<g>
	<g>
		<rect style="fill:#CCEEFF;" width="4000" height="4000"/>
	</g>
	<g style="opacity:0.15;">
		
			<ellipse transform="matrix(0.0345 -0.9994 0.9994 0.0345 -1394.0204 5169.6489)" style="fill:#000072;" cx="1978.465" cy="3306.279" rx="101.217" ry="1364.51"/>
	</g>
	<g>
		<g>
			<path style="fill:#FFFFFF;" d="M862.574,1449.697c18.668-30.543,27.872-67.207,23.934-105.564
				c-9.559-93.1-92.78-160.823-185.88-151.264c-93.1,9.559-160.823,92.78-151.264,185.88c9.559,93.1,92.781,160.823,185.88,151.264
				c25.896-2.659,49.818-11.031,70.67-23.716l78.42,17.587L862.574,1449.697z"/>
		</g>
		<g style="opacity:0.5;">
			<g>
				<path style="fill:#FFFFFF;" d="M703.957,1225.29c86.968-8.929,165.297,49.587,183.032,133.222
					c0.021-5.974-0.236-12.001-0.86-18.078c-9.559-93.1-92.78-160.823-185.88-151.264c-93.1,9.559-160.823,92.78-151.264,185.88
					c0.627,6.103,1.588,12.09,2.829,17.96C552.141,1307.479,616.96,1234.222,703.957,1225.29z"/>
			</g>
		</g>
		<g>
			<path style="fill:#000072;" d="M717.798,1546.23c-93.484,0.01-173.921-70.94-183.674-165.916
				c-10.405-101.353,63.587-192.278,164.939-202.686c101.345-10.415,192.275,63.586,202.685,164.939
				c3.928,38.264-3.882,75.857-22.612,109.167l19.898,67.837c1.528,5.205,0.188,10.83-3.523,14.788
				c-3.708,3.958-9.233,5.667-14.529,4.473l-72.537-16.267c-22.097,12.446-46.167,20.073-71.636,22.688
				C730.43,1545.907,724.077,1546.23,717.798,1546.23z M718.049,1207.294c-5.242,0-10.532,0.266-15.857,0.813
				c-84.548,8.682-146.269,84.531-137.59,169.077c8.682,84.546,84.521,146.262,169.077,137.59
				c23.005-2.363,44.629-9.617,64.273-21.565c3.391-2.061,7.454-2.727,11.313-1.86l53.049,11.897l-14.441-49.238
				c-1.218-4.146-0.625-8.613,1.629-12.302c17.715-28.977,25.242-62.178,21.767-96.008
				C863.135,1266.476,796.028,1207.294,718.049,1207.294z"/>
		</g>
		<g style="opacity:0.3;">
			<path style="fill:#000072;" d="M863.526,1448.069c-46.415,39.26-110.359,56.452-173.857,40.648
				c-70.421-17.527-122.307-71.151-140.969-136.233c-0.446,8.629-0.246,17.401,0.664,26.264
				c9.559,93.1,92.781,160.823,185.88,151.264c25.896-2.659,49.818-11.031,70.67-23.716l78.421,17.587l-21.76-74.188
				C862.902,1449.161,863.204,1448.609,863.526,1448.069z"/>
		</g>
		<g>
			<path style="fill:#FF0068;" d="M772.123,1313.856L772.123,1313.856c-14.665-14.665-38.442-12.037-53.108,2.628l-2.282,2.282
				l-2.283-2.282c-14.665-14.665-38.442-17.293-53.107-2.628l0,0c-14.665,14.665-14.665,38.442,0,53.107l2.283,2.282l46.107,46.107
				c3.866,3.866,10.135,3.866,14.001,0l46.107-46.107l2.282-2.282C786.788,1352.298,786.788,1328.521,772.123,1313.856z"/>
		</g>
	</g>
	<g>
		<g>
			<g>
				
					<ellipse transform="matrix(0.803 -0.596 0.596 0.803 -400.653 2199.4604)" style="fill:#5F5F82;" cx="3126.426" cy="1705.73" rx="187.382" ry="197.411"/>
			</g>
			<g style="opacity:0.3;">
				
					<ellipse transform="matrix(0.2158 -0.9764 0.9764 0.2158 875.4066 4318.7344)" style="fill:#FFFFFF;" cx="3126.426" cy="1614.364" rx="53.545" ry="93.476"/>
			</g>
			<g>
				<path style="fill:#000072;" d="M3136.25,1921.581c-66.746,0-133.921-31.697-177.971-91.045
					c-34.807-46.892-50.186-103.918-43.308-160.579c6.931-57.09,35.581-106.96,80.671-140.427
					c92.715-68.818,226.816-45.764,298.931,51.394l0,0c34.805,46.89,50.186,103.918,43.306,160.576
					c-6.931,57.092-35.579,106.963-80.669,140.43C3221.13,1908.713,3178.774,1921.581,3136.25,1921.581z M3116.675,1533.896
					c-33.403,0-66.558,10.054-94.783,31.001c-35.291,26.196-57.734,65.393-63.196,110.371
					c-5.513,45.408,6.899,91.226,34.949,129.019c57.642,77.651,164.094,96.616,237.314,42.278
					c35.291-26.196,57.734-65.393,63.193-110.371c5.515-45.408-6.897-91.228-34.946-129.018
					C3223.784,1559.457,3169.922,1533.896,3116.675,1533.896z"/>
			</g>
		</g>
		<g>
			<g>
				<path style="fill:#FFFFFF;" d="M3236.53,2485.32l-378.677-45.375l-744.051-89.324l15.442-855.944
					c0,0,188.507-70.556,402.671-70.319c145.032,0.119,301.588,32.665,419.775,141.232
					C3314.926,1899.606,3286.181,2309.523,3236.53,2485.32z"/>
			</g>
			<g>
				<path style="fill:#5F5F82;" d="M2857.853,2439.945l-74.12-8.909l-298.618-35.872l-371.313-44.543l15.442-855.944
					c0,0,188.507-70.556,402.671-70.319c105.834,70.201,248.73,217.371,317.385,518.008
					C2893.369,2135.032,2885.173,2304.177,2857.853,2439.945z"/>
			</g>
			<g>
				<path style="fill:#51517C;" d="M2796.086,2366.538c-0.95,19.362-5.226,41.099-12.353,64.499l-298.618-35.872
					c79.702-97.401,131.611-171.403,131.611-171.403s-24.113-21.5-68.656-45.256
					C2653.073,2079.085,2804.876,2178.388,2796.086,2366.538z"/>
			</g>
			<g style="opacity:0.3;">
				<path style="fill:#FFFFFF;" d="M2520.704,1492.412c145.032,0.119,301.588,32.665,419.775,141.232
					c298.989,274.937,332.34,601.181,307.114,806.072c40.649-194.072,38.892-566.263-295.903-874.125
					c-118.188-108.567-274.743-141.113-419.775-141.232c-214.164-0.237-402.671,70.319-402.671,70.319l-1.164,64.499
					C2169.596,1544.908,2335.503,1492.207,2520.704,1492.412z"/>
			</g>
			<g>
				<path style="fill:#000072;" d="M3236.543,2507.302c-0.874,0-1.753-0.051-2.639-0.159l-1122.712-134.621
					c-11.221-1.348-19.602-10.967-19.397-22.266l15.449-855.957c0.164-9.038,5.833-17.058,14.299-20.227
					c5.518-2.066,137.107-50.774,307.07-66.785c227.512-21.411,413.53,27.708,537.944,142.097
					c162.646,149.543,264.937,328.281,304.031,531.252c37.747,195.962,3.574,352.446-12.869,410.63
					C3255.012,2500.842,3246.279,2507.302,3236.543,2507.302z M2136.191,2331.156l1083.931,129.973
					c29.026-117.583,95.569-530.903-283.374-879.321c-145.017-133.33-353.569-144.712-502.986-130.764
					c-133.24,12.432-244.668,46.641-282.756,59.402L2136.191,2331.156z"/>
			</g>
		</g>
		<g>
			<g>
				<g>
					<path style="fill:#62CC40;" d="M2853.697,2374.823c19.035-52.202,139.122-168.283,172.591-165.852
						s-120.615,140.797-121.64,226.998"/>
					<path style="fill:#000072;" d="M2904.653,2454.643c-0.076,0-0.151-0.002-0.227-0.002c-10.313-0.122-18.572-8.582-18.45-18.894
						c0.664-55.842,53.938-125.3,92.834-176.013c1.858-2.422,3.774-4.919,5.706-7.449c-42.09,33.753-100.559,94.063-113.276,128.936
						c-3.533,9.69-14.246,14.678-23.94,11.147c-9.69-3.533-14.68-14.253-11.147-23.94c19.258-52.81,143.801-181.702,191.489-178.079
						c9.092,0.659,16.587,5.659,20.049,13.372c7.81,17.393-5.964,35.352-39.246,78.74c-33.691,43.928-84.607,110.313-85.125,153.73
						C2923.198,2446.427,2914.861,2454.64,2904.653,2454.643z"/>
				</g>
				<g>
					<path style="fill:#4FAD2B;" d="M3005.978,2225.79c0,0,43.838-50.073,47.706-126.818
						c6.667-132.303-109.415-245.347-204.339-290.499c0,0,60.729,68.586,65.803,163.974
						C2918.074,2027.454,2862.523,2171.076,3005.978,2225.79z"/>
				</g>
				<g>
					<path style="fill:#42841F;" d="M2951.071,2163.116c-31.618-42.341-24.65-99.522-19.049-145.469
						c2.184-17.915,4.069-33.39,3.384-46.277c-2.03-38.153-12.337-72.291-24.429-100.062c19.293,33.73,37.392,66.286,39.174,98.01
						c2.772,49.349-12.326,152.524,37.381,134.669c14.669,36.237,32.831,26.891,40.354-1.413
						c-2.448,48.565-16.927,80.689-28.67,98.31c-20.722-9.814-36.552-22.248-48.138-37.758
						C2951.077,2163.125,2951.073,2163.119,2951.071,2163.116z"/>
				</g>
				<g>
					<path style="fill:#000072;" d="M3005.974,2244.465c-2.229,0-4.482-0.4-6.65-1.228c-128.11-48.86-114.255-162.439-105.979-230.3
						c1.965-16.104,3.662-30.01,3.157-39.497c-4.648-87.366-60.593-151.97-61.16-152.612c-5.85-6.658-6.226-16.523-0.886-23.596
						c5.344-7.065,14.905-9.424,22.91-5.62c90.488,43.042,222.407,160.669,214.968,308.301
						c-4.146,82.278-50.342,135.935-52.305,138.179C3016.411,2242.223,3011.255,2244.465,3005.974,2244.465z M2907.063,1866.247
						c13.088,28.584,24.568,64.524,26.733,105.21c0.676,12.749-1.204,28.159-3.379,46.001
						c-7.913,64.868-17.668,144.888,69.314,185.44c11.746-17.466,32.805-55.286,35.303-104.866
						C3039.919,2001.1,2974.453,1918.08,2907.063,1866.247z"/>
				</g>
				<g>
					<path style="fill:#62CC40;" d="M3012.559,2246.26c0,0,58.336-67.972,170.807-112.325
						c72.55-28.61,156.052-22.735,237.318-83.439c0,0-24.817,150.397-213.434,221.669
						C3082.563,2319.281,3012.559,2246.26,3012.559,2246.26z"/>
				</g>
				<g>
					<path style="fill:#43A31F;" d="M3042.94,2244.436c23.277-21.662,73.303-62.224,147.868-91.629
						c24.165-9.528-69.36,66.323,19.126,55.117c-80.644,65.489,99.761,3.842-9.856,45.265
						C3121.317,2282.95,3067.8,2260.449,3042.94,2244.436z"/>
				</g>
				<g>
					<path style="fill:#000072;" d="M3125.591,2306.823c-79.641,0-124.089-45.112-126.511-47.639
						c-6.65-6.936-6.951-17.791-0.691-25.083c2.505-2.92,62.676-72.009,178.127-117.536c27.153-10.708,55.869-16.863,83.64-22.815
						c49.246-10.557,100.168-21.472,149.353-58.213c6.106-4.553,14.365-4.954,20.876-0.994s9.963,11.477,8.721,18.994
						c-1.084,6.575-28.828,161.872-225.256,236.096C3180.894,2302.087,3151.394,2306.823,3125.591,2306.823z M3040.334,2244.665
						c24.365,16.255,79.036,40.747,160.313,10.032c113.428-42.859,164.05-114.541,185.935-161.418
						c-40.933,20.339-81.572,29.05-118.599,36.987c-27.502,5.896-53.479,11.462-77.766,21.04
						C3113.779,2181.449,3063.037,2223.281,3040.334,2244.665z M3012.559,2246.261h0.049H3012.559z"/>
				</g>
				<g>
					<path style="fill:#000072;" d="M2931.593,1899.655c40.734,41.744,60.363,100.958,64.825,158.292
						c2.913,43.312-10.053,85.042,2.465,125.922c3.799,12.562,10.003,24.256,17.567,35.191l-20.945,13.462
						c-16.162-26.07-23.499-58.575-20.765-88.86c2.078-29.135,8.987-56.687,9.379-85.486
						C2983.784,2002.015,2968.432,1943.178,2931.593,1899.655L2931.593,1899.655z"/>
				</g>
				<g>
					<path style="fill:#000072;" d="M3365.261,2116.136c-94.637,73.857-230.226,154.987-354.547,142.437
						c-0.001-0.001,3.69-24.624,3.69-24.624C3131.584,2253.228,3270.402,2180.882,3365.261,2116.136L3365.261,2116.136z"/>
				</g>
			</g>
			<g>
				<g>
					<path style="fill:#62CC40;" d="M3337.613,2886.566c-130.303,120.682-278.781,185.3-381.409,175.678l-84.929-7.365
						l-2238.21-194.922c-85.642-7.365-156.673-69.725-174.848-153.822c-9.265-43.237-13.185-95.026-4.276-153.823
						c1.663-10.928,3.682-22.093,6.295-33.497c29.102-128.997,116.407-198.485,175.916-231.863
						c31.359-17.58,66.993-26.013,102.866-24.706l2657.629,122.583h0.832l21.5,1.069h0.356
						c36.704,3.682,67.469,16.748,89.206,40.386C3591.688,2516.085,3515.192,2722.053,3337.613,2886.566z"/>
				</g>
				<g>
					<path style="fill:#43A31F;" d="M646.733,2787.885c3.076,13.407-7.922,25.869-21.626,24.68l0,0
						c-84.097-7.245-154.179-67.587-173.778-149.427c-3.563-33.378-3.563-70.438,2.614-110.824
						c39.432,14.479,97.33,27.893,157.346,15.375c13.54-2.824,25.747,8.434,24.253,22.184
						C626.199,2675.843,637.5,2747.638,646.733,2787.885z"/>
				</g>
				<g>
					<path style="fill:#43A31F;" d="M1422.945,2636.41c-336.587,39.238-574.619-39.821-673.902-82.573
						c-24.758-10.661-52.805,5.549-55.874,32.328c-6.889,60.099-11.428,142.361,3.507,205.022
						c4.026,16.889,18.487,29.235,35.784,30.74l703.46,61.221c26.892,2.341,48.37-21.807,42.989-48.259
						c-7.609-37.4-14.741-92.003-10.864-155.639C1469.585,2653.951,1448.121,2633.475,1422.945,2636.41z"/>
				</g>
				<g>
					<path style="fill:#43A31F;" d="M2295.487,2689.878c-324.285,36.669-611.674-23.322-725.888-52.568
						c-20.806-5.328-41.429,9.113-43.382,30.501c-5.701,62.427-7.214,143.066,9.614,201.642
						c3.99,13.889,16.122,23.861,30.518,25.113l738.706,64.241c23.281,2.024,41.692-19.001,37.002-41.895
						c-8.67-42.326-17.203-109.608-8.172-188.533C2336.425,2706.179,2317.691,2687.367,2295.487,2689.878z"/>
				</g>
				<g>
					<path style="fill:#43A31F;" d="M2764.941,2734.371c-153.768,18.334-266.682-14.703-324.236-38.365
						c-22.047-9.064-46.493,5.323-49.214,29.004c-7.305,63.59-12.191,153.476,5.989,218.198
						c4.069,14.486,16.469,25.058,31.459,26.363l304.214,26.487c22.435,1.953,41.406-17.132,38.56-39.471
						c-7.547-59.231,9.783-122.846,30.292-173.605C2812.086,2758.029,2791.664,2731.185,2764.941,2734.371z"/>
				</g>
				<g>
					<path style="fill:#000072;" d="M851.148,2321.936c-89.344,82.457-147.663,197.992-156.068,319.741
						c-3.086,40.62-1.501,81.796,3.074,123.14c0.638,5.472-3.304,10.428-8.781,11.031c-4.911,0.543-9.382-2.593-10.668-7.203
						c-11.583-41.405-17.172-84.803-16.768-128.442c0.796-109.645,45.882-219.072,125.578-294.806
						c16.045-15.02,32.482-28.798,52.102-40.352c4.873-2.87,11.15-1.247,14.019,3.627
						C856.29,2313.166,855.079,2318.804,851.148,2321.936L851.148,2321.936z"/>
				</g>
				<g>
					<path style="fill:#000072;" d="M1690.782,2359.661c-91.585,89.893-147.801,213.688-156.016,341.782
						c-3.038,42.905-1.492,86.332,2.923,129.944c0.57,5.633-3.534,10.662-9.168,11.232c-5.081,0.514-9.67-2.778-10.939-7.563
						c-11.619-43.651-17.25-89.182-17.004-134.956c0.415-92.014,27.937-184.346,80.614-260.049
						c26.895-37.853,57.782-71.823,97.197-97.457C1689.459,2335.808,1700.726,2351.179,1690.782,2359.661L1690.782,2359.661z"/>
				</g>
				<g>
					<path style="fill:#000072;" d="M2575.685,2401.406c-67.294,65.985-117.621,149.379-146.406,239.03
						c-29.19,90.995-32.89,187.514-22.942,282.709c0.665,6.246-3.885,11.851-10.135,12.481c-5.621,0.568-10.697-3.074-12.1-8.365
						c-12.853-48.284-19.081-98.649-18.81-149.281c0.462-101.76,30.856-203.999,89.171-287.652
						c29.608-41.76,64.255-79.73,107.514-107.802C2574.323,2375.171,2586.529,2391.876,2575.685,2401.406L2575.685,2401.406z"/>
				</g>
				<g>
					<g>
						<path style="fill:#DCFFCF;" d="M3198.557,2444.241c-54.14,29.218-109.509,68.686-161.937,117.219
							c-177.579,164.394-254.075,370.48-170.927,460.281c22.093,23.875,53.214,37.06,90.512,40.504
							c102.628,9.621,251.105-54.996,381.409-175.678c177.579-164.513,254.075-370.481,170.928-460.28
							c-21.737-23.638-52.501-36.704-89.206-40.386h-0.356l-21.5-1.069h-0.832c-16.625,0.059-66.453,0-116.902,26.355
							C3279.747,2411.186,3230.677,2431.052,3198.557,2444.241z"/>
					</g>
					<g>
						<path style="fill:#B2DB9C;" d="M3114.504,2589.977c-8.509,7.104-17.073,14.625-25.668,22.582
							c-62.086,57.476-110.648,125.337-133.238,186.177c-16.141,43.47-17.636,81.208-3.788,96.169
							c5.938,6.42,16.222,10.347,30.668,11.675c3.368,0.315,6.95,0.478,10.648,0.478c52.217,0,149.165-33.324,250.551-127.219
							c128.948-119.462,167.895-249.041,136.907-282.518c-6.683-7.271-18.692-10.156-28.189-11.274l-14.417-0.726
							c-17.43,0.216-39.684,4.068-65.314,12.522C3272.664,2497.842,3211.352,2517.831,3114.504,2589.977z"/>
					</g>
					<g>
						<path style="fill:#000072;" d="M3274.534,2401.208c42.71-27.376,94.701-35.942,144.801-34.509
							c72.987,3.629,131.414,52.634,141.313,126.233c9.165,63.743-10.788,127.794-36.753,184.081
							c-71.649,146.567-192.969,266.578-334.449,346.136c-87.257,46.787-209.993,91.614-305.017,42.359
							c-108.779-60.558-79.885-205.714-33.28-297.369c54.246-109.606,139.557-201.416,238.529-271.875
							c32.985-23.141,67.717-43.834,104.296-60.515c4.859-2.216,10.595-0.073,12.812,4.787c2.031,4.454,0.383,9.654-3.646,12.196
							c-147.74,94.612-314.757,263.667-345.847,440.743c-11.665,75.479,18.327,137.094,97.469,144.855
							c72.703,6.973,147.767-22.067,212.109-56.6c132.844-74.566,248.943-186.826,317.622-323.49
							c47.085-93.296,69.91-236.955-67.075-253.236c0.001,0,1.917,0.095,1.917,0.095c-5.233-0.323-13.094-1.21-18.401-1.768
							c-39.385-3.056-79.122,3.204-115.975,17.829C3272.142,2426.345,3263.104,2408.612,3274.534,2401.208L3274.534,2401.208z"/>
					</g>
				</g>
				<g>
					<path style="fill:#000072;" d="M2976.455,3085.187c-7.612,0-15.051-0.334-22.307-1.016L631.157,2881.899
						c-95.972-8.252-174.131-77.017-194.465-171.111c-13.716-63.711-13.022-129.925,2.061-196.814
						c31.812-141.008,130.581-214.795,186.626-246.228c34.709-19.458,74.263-28.96,114.441-27.508l2657.332,122.569h0.33
						c0.364,0,0.73,0.01,1.094,0.027l21.16,1.054c0.613,0.015,1.294,0.049,1.799,0.098c43.594,4.375,78.323,20.32,103.218,47.393
						c92.717,100.137,17.114,315.986-172.173,491.343c0,0.002,0,0.002,0,0.002
						C3230.718,3015.585,3086.062,3085.187,2976.455,3085.187z M731.646,2284.133c-29.692,0-58.914,7.563-84.724,22.031
						c-60.652,34.019-138.552,99.368-165.203,217.5c-13.665,60.605-14.329,120.439-1.97,177.837
						c16.221,75.061,78.594,129.929,155.205,136.516l2323.159,202.288c99.988,9.39,242.988-57.332,364.534-169.893h-0.002
						c165.469-153.293,243.198-349.824,169.736-429.163c-17.266-18.777-42.275-29.978-74.392-33.35
						c-0.037,0-0.071-0.002-0.103-0.005l-21.238-1.04c-0.339,0-0.676-0.007-1.016-0.025L738.003,2284.247
						C735.884,2284.171,733.762,2284.133,731.646,2284.133z M3337.612,2886.567h0.051H3337.612z"/>
				</g>
				<g>
					
						<path style="fill:none;stroke:#000072;stroke-width:11.8782;stroke-linecap:round;stroke-linejoin:round;stroke-miterlimit:10;" d="
						M3420.684,2327.905"/>
				</g>
				<g style="opacity:0.5;">
					<path style="fill:#FFFFFF;" d="M1107.445,2351.846c-135.697-32.028-172.653-45.929-220.5-10.892
						c-15.85,11.606-61.144,64.881-32.002,117.204c36.236,65.061,242.731,2.262,399.112,19.326
						c156.381,17.064,183.401,59.034,237.604,21.316c31.103-21.644,20.968-83.046,94.528-146.098
						C1624.444,2319.911,1301.605,2397.673,1107.445,2351.846z"/>
				</g>
				<g style="opacity:0.5;">
					<path style="fill:#FFFFFF;" d="M1976.321,2387.322c-136.828-36.426-173.926-51.521-223.655-18.059
						c-16.473,11.085-64.192,62.858-36.261,116.104c34.729,66.206,246.514,10.156,404.834,32.299
						c158.32,22.142,184.426,64.97,240.697,29.034c32.289-20.621,23.958-82.322,100.706-142.948
						C2502.555,2372.221,2172.098,2439.441,1976.321,2387.322z"/>
				</g>
				<g style="opacity:0.5;">
					<path style="fill:#FFFFFF;" d="M578.386,2410.486c-10.911,0.473-16.714-12.709-8.964-20.404
						c31.973-31.742,90.8-86.914,111.8-85.199c29.429,2.402,69.067,5.005,92.49,3.003c23.423-2.002-4.805,25.224-28.227,48.647
						c-23.423,23.423-37.627,75.073-58.752,71.469c-21.125-3.604-43.347-20.42-69.773-19.219
						C605.524,2409.303,591.086,2409.936,578.386,2410.486z"/>
				</g>
				<g style="opacity:0.5;">
					<path style="fill:#FFFFFF;" d="M2545.47,2542.602c-19.35,1.034-31.147-21.014-19.519-36.514
						c28.364-37.807,71.006-90.204,95.155-98.506c38.437-13.213,146.542,33.633,235.428,22.822
						c61.208-7.444,157.729-14.888,222.887-13.312c22.176,0.537,30.679,29.162,12.389,41.714
						c-41.614,28.559-100.937,72.223-146.504,117.627c-6.089,6.068-14.889,8.397-23.086,5.806
						c-29.715-9.393-105.236-31.443-180.999-38.926C2679.053,2537.174,2596.775,2539.862,2545.47,2542.602z"/>
				</g>
				<g>
					<path style="fill:#000072;" d="M3402.281,2671.6c15.836-41.312,59.896-140.457,33.555-178.11
						c-9.232-8.834-26.396-8.699-38.942-9.25c-79.287,2.942-160.742,51.093-224.758,95.794
						c-88.69,66.421-168.331,152.081-215.355,252.714c-13.173,28.426-37.421,97.61-16.087,122.453
						c2.675,2.241,7.408,4.331,12.897,5.66c23.167,5.003,50.962,1.749,77.232-5.007c53.799-13.53,104.043-39.988,150.831-69.901
						c23.902-14.898,47.435-30.514,72.251-45.347c6.727-4.077,13.964,4.689,8.922,10.531c-18.992,22.369-41.02,41.917-64.725,59.223
						c-62.705,43.984-149.62,87.041-227.782,86.041c-58.332-0.429-77.654-35.833-71.093-90.479
						c12.783-90.217,65.562-168.043,122.493-235.478c58.19-66.141,126.895-124.062,204.727-165.722
						c55.798-29.16,117.97-56.303,182.659-52.182c36.761,1.657,62.012,19.648,65.357,58.379
						c2.845,33.476-6.462,62.888-17.662,90.493c-12.042,27.312-27.264,52.76-46.129,75.239
						C3407.052,2680.984,3400.172,2676.649,3402.281,2671.6L3402.281,2671.6z"/>
				</g>
			</g>
		</g>
		<g>
			<g>
				<path style="fill:#5F5F82;" d="M2616.726,2223.762c0,0-472.515,674.326-757.711,629.427
					c-94.194-14.848-131.254-66.162-134.58-133.987c-9.74-192.783,253.243-518.84,253.243-518.84
					c265.359-141.707,469.902-75.664,570.392-21.856C2592.613,2202.262,2616.726,2223.762,2616.726,2223.762z"/>
			</g>
			<g>
				<path style="fill:#51517C;" d="M2616.726,2223.762c0,0-472.515,674.326-757.711,629.427
					c-94.194-14.848-131.254-66.162-134.58-133.987c11.403-26.726,19.361-44.899,19.361-44.899s20.906,94.312,126.622,98.945
					c105.716,4.751,547.585-415.618,650.925-563.383c8.434-12.116,17.461-22.568,26.726-31.359
					C2592.613,2202.262,2616.726,2223.762,2616.726,2223.762z"/>
			</g>
			<g>
				<path style="fill:#000072;" d="M1914.153,2842.034c1.402-41.553,15.322-82.856,40.471-115.883
					c5.061-6.773,15.765-0.77,12.661,7.046c-13.607,32.541-16.975,69.669-9.356,103.973c4.223,11.712-1.848,24.629-13.56,28.852
					C1928.654,2871.882,1912.464,2858.416,1914.153,2842.034L1914.153,2842.034z"/>
			</g>
			<g>
				<path style="fill:#000072;" d="M1766.81,2821.213c1.401-41.553,15.323-82.856,40.471-115.883
					c5.061-6.773,15.765-0.77,12.661,7.046c-13.606,32.542-16.975,69.669-9.356,103.973c4.223,11.712-1.848,24.629-13.56,28.852
					C1781.311,2851.061,1765.12,2837.595,1766.81,2821.213L1766.81,2821.213z"/>
			</g>
			<g>
				<path style="fill:#000072;" d="M1994.824,2214.175c-82.814,106.519-327.505,450.857-221.409,575.153
					c194.873,181.031,570.169-256.025,690.123-398.441c47.89-57.89,94.877-116.654,144.942-173.08
					c3.755-4.233,10.229-4.62,14.462-0.866c3.683,3.268,4.45,8.599,2.113,12.716c-37.718,66.529-83.58,127.06-131.604,185.877
					c-130.251,156.641-419.116,494.781-640.709,459.604c-41.429-6.712-84.064-22.425-113.36-55.301
					c-81.938-94.261-14.583-249.749,32.883-345.426c52.82-102.461,116.78-197.389,188.274-287.888
					c7.574-9.515,21.428-11.089,30.944-3.515C2001.091,2190.638,2002.572,2204.696,1994.824,2214.175L1994.824,2214.175z"/>
			</g>
		</g>
		<g>
			<g>
				<path style="fill:#5F5F82;" d="M1244.169,2198.685c0,0-418.29,545.386-92.159,588.528
					c256.947,33.99,666.173-581.495,666.173-581.495S1583.209,2006.82,1244.169,2198.685z"/>
			</g>
			<g>
				<path style="fill:#51517C;" d="M1765.206,2171.57c-104.979,146.983-419.229,558.223-630.539,530.271
					c-54.674-7.232-88.347-28.628-106.656-59.156c-4.215,74.272,26.868,131.678,123.999,144.527
					c256.947,33.99,666.173-581.495,666.173-581.495S1799.546,2189.946,1765.206,2171.57z"/>
			</g>
			<g>
				<path style="fill:#000072;" d="M1201.229,2775.969c0.347-37.323,11.934-74.696,33.779-104.89
					c4.295-6.204,14.202-0.957,11.517,6.047c-11.498,29.503-13.706,62.898-6.116,93.517c4.047,10.419-1.119,22.146-11.537,26.192
					C1214.899,2802.438,1200.072,2790.708,1201.229,2775.969L1201.229,2775.969z"/>
			</g>
			<g>
				<path style="fill:#000072;" d="M1068.537,2760.516c0.346-37.323,11.934-74.696,33.779-104.889
					c4.295-6.204,14.202-0.957,11.518,6.046c-11.498,29.504-13.706,62.898-6.116,93.518c4.047,10.418-1.119,22.145-11.537,26.191
					C1082.206,2786.985,1067.38,2775.255,1068.537,2760.516L1068.537,2760.516z"/>
			</g>
			<g>
				<path style="fill:#000072;" d="M1261.644,2212.088c-71.206,96.428-282.532,410.038-186.177,518.064
					c177.311,156.095,503.59-243.081,607.361-372.346c41.707-52.961,82.65-106.645,126.993-157.885
					c7.135-8.552,22.564-0.073,16.854,11.444c-31.75,61.038-71.523,116.46-113.341,170.35
					c-114.173,144.364-365.694,454.439-566.819,427.61c-37.796-5.175-76.902-18.546-104.326-47.842
					c-76.54-83.972-19.5-225.315,21.509-313.343c45.273-93.285,100.627-179.935,162.995-262.858
					c7.346-9.693,21.159-11.596,30.852-4.25C1267.324,2188.426,1269.143,2202.427,1261.644,2212.088L1261.644,2212.088z"/>
			</g>
		</g>
		<g>
			<g>
				<g>
					<circle style="fill:#5F5F82;" cx="2360.454" cy="1262.87" r="231.825"/>
				</g>
				<g style="opacity:0.3;">
					<path style="fill:#FFFFFF;" d="M2592.279,1262.87c0-128.034-103.792-231.825-231.825-231.825
						c-123.796,0-224.632,97.111-231.191,219.272c31.206-91.169,117.435-156.811,219.18-156.811
						c128.033,0,231.825,103.792,231.825,231.825c0,4.237-0.409,8.369-0.634,12.55
						C2587.696,1314.325,2592.279,1289.158,2592.279,1262.87z"/>
				</g>
				<g>
					<path style="fill:#000072;" d="M2360.454,1516.72c-139.973,0-253.85-113.877-253.85-253.85s113.877-253.85,253.85-253.85
						c139.971,0,253.848,113.877,253.848,253.85S2500.425,1516.72,2360.454,1516.72z M2360.454,1053.068
						c-115.686,0-209.802,94.116-209.802,209.802s94.116,209.802,209.802,209.802c115.684,0,209.8-94.116,209.8-209.802
						S2476.138,1053.068,2360.454,1053.068z"/>
				</g>
			</g>
			<g>
				<g>
					<circle style="fill:#5F5F82;" cx="1246.409" cy="1205.214" r="231.825"/>
				</g>
				<g style="opacity:0.3;">
					<path style="fill:#FFFFFF;" d="M1042.857,1258.066c0-128.034,103.792-231.825,231.825-231.825
						c77.709,0,146.315,38.371,188.378,97.054c-33.13-87.545-117.501-149.906-216.651-149.906
						c-128.034,0-231.825,103.792-231.825,231.825c0,50.324,16.208,96.768,43.447,134.771
						C1048.38,1314.482,1042.857,1286.949,1042.857,1258.066z"/>
				</g>
				<g>
					<path style="fill:#000072;" d="M1246.409,1459.064c-139.971,0-253.848-113.877-253.848-253.85
						c0-139.971,113.877-253.848,253.848-253.848c139.973,0,253.85,113.877,253.85,253.848
						C1500.259,1345.187,1386.382,1459.064,1246.409,1459.064z M1246.409,995.414c-115.684,0-209.8,94.116-209.8,209.8
						c0,115.686,94.116,209.802,209.8,209.802c115.686,0,209.802-94.116,209.802-209.802
						C1456.211,1089.53,1362.095,995.414,1246.409,995.414z"/>
				</g>
			</g>
			<g>
				<g>
					<path style="fill:#FFFFFF;" d="M979.112,1704.9c0,0,105.703-619.802,744.723-578.962
						c639.021,40.84,794.634,482.58,778.356,881.523c-17.65,432.553-468.455,603.119-1109.878,463.784
						C750.89,2331.909,712.453,1923.512,979.112,1704.9z"/>
				</g>
				<g>
					<path style="fill:#DAE1F2;" d="M1392.314,2333.51c-354.629-77.035-524.865-236.318-561.202-400.299
						c-44.893,205.628,106.836,439.332,561.202,538.033c641.423,139.335,1092.228-31.23,1109.878-463.784
						c1.696-41.553,1.493-83.57-0.893-125.55C2475.628,2305.354,2027.597,2471.512,1392.314,2333.51z"/>
				</g>
				<g>
					<path style="fill:#DAE1F2;" d="M1542.459,1922.311c0.917-2.394-29.228-21.221-29.228-21.221s-24.824,44.043-42.842,44.443
						c-9.009,0.2-17.617-6.907-23.973-14.064c-7.079-7.971-20.198-4.115-22.54,6.286c-1.651,7.331-1.51,16.516,2.871,27.397
						C1439.159,1995.982,1515.633,1992.379,1542.459,1922.311z"/>
				</g>
				<g>
					<path style="fill:#DAE1F2;" d="M1595.311,1921.71c0,0,9.009,50.449,37.236,58.857c28.227,8.408,62.461-34.137,74.472-29.681
						c12.012,4.456,12.612,33.284-16.816,48.299c-29.429,15.015-113.51,48.047-132.729-66.665L1595.311,1921.71z"/>
				</g>
				<g>
					<g>
						<path style="fill:#000072;" d="M1659.515,1893.192c-3.729,20.297-33.5,33.363-60.041,41.081
							c-27.762,8.073-56.244,2.841-79.324-14.573c-22.064-16.648-45.247-39.442-41.518-59.739
							C1489.879,1798.74,1670.762,1831.971,1659.515,1893.192z"/>
					</g>
					<g style="opacity:0.5;">
						<path style="fill:#FFFFFF;" d="M1600.725,1869.243c-1.19,5.83-12.7,8.845-23.013,10.385
							c-10.789,1.611-22.039-0.686-31.333-6.396c-8.885-5.459-18.292-12.744-17.102-18.574
							C1532.866,1837.074,1604.315,1851.658,1600.725,1869.243z"/>
					</g>
				</g>
				<g>
					<path style="fill:#000072;" d="M1431.999,1945.759c7.424,15.037,20.245,28.288,37.563,29.992
						c29.614,4.291,55.872-33.916,71.475-56.086c5.275-13.109,24.987-10.289,26.532,3.56c2.085,17.281,7.008,36.008,15.013,51.406
						c7.654,14.811,18.455,25.789,31.881,29.854c23.053,6.078,48.333,0.543,67.685-13.493c7.271-4.931,13.812-11.495,19.898-17.858
						c7.87-8.191,21.499,0.952,17.017,11.302c-17.689,43.382-70.199,63.203-113.959,50.83
						c-45.63-14.114-63.656-65.038-65.585-108.415c0,0,26.785,5.657,26.785,5.657c-7.123,15.963-15.613,29.553-26.773,42.852
						c-14.918,17.599-35.365,33.559-59.868,35.346c-33.125,2.161-67.536-20.699-68.77-55.773c-0.132-2.497-0.074-4.565,0.192-7.681
						c0.464-5.43,5.242-9.457,10.673-8.993C1426.276,1938.355,1429.366,1942.744,1431.999,1945.759L1431.999,1945.759z"/>
				</g>
				<g>
					<path style="fill:#5F5F82;" d="M1807.306,1969.307c-73.455-65.417-98.679-168.275-74.439-263.603
						c12.199-47.975,37.175-96.707,87.173-120.897c107.091-51.814,204.84,10.779,249.748,74.268
						c9.322,13.179,20.632,24.784,32.762,35.435c43.478,38.176,133.399,134.939,73.8,240.906
						C2117.072,2040.81,1927.872,2076.679,1807.306,1969.307z"/>
				</g>
				<g>
					<path style="fill:#5F5F82;" d="M1398.157,1904.434c67.827-52.38,96.016-140.24,80.757-224.568
						c-7.68-42.439-26.418-86.315-68.398-110.385c-89.918-51.557-178.688-3.111-221.586,49.332
						c-8.905,10.886-19.442,20.283-30.633,28.801c-40.114,30.531-124.161,109.151-78.818,204.881
						C1124.576,1947.707,1286.828,1990.408,1398.157,1904.434z"/>
				</g>
				<g>
					<path style="fill:#000072;" d="M2056.829,1877.497c-0.789,0-1.582-0.032-2.38-0.095l-197.759-15.854
						c-16.184-1.299-28.252-15.469-26.956-31.653s15.481-28.262,31.653-26.956l197.759,15.854
						c16.184,1.299,28.252,15.469,26.956,31.653C2084.868,1865.829,2072,1877.497,2056.829,1877.497z"/>
				</g>
				<g>
					<path style="fill:#000072;" d="M1361.548,1810.046c-1.868,0-3.757-0.173-5.659-0.53l-171.287-32.107
						c-16.575-3.106-27.493-19.06-24.385-35.635s19.07-27.485,35.635-24.385l171.287,32.107
						c16.575,3.105,27.493,19.06,24.385,35.635C1388.774,1799.804,1375.952,1810.046,1361.548,1810.046z"/>
				</g>
				<g>
					<path style="fill:#000072;" d="M1800.469,2540.954c-125.889,0-264.468-15.959-412.83-48.188
						c-168.95-36.702-305.334-93.574-405.366-169.038c-90.383-68.186-149.626-151.826-171.318-241.877
						c-33.167-137.673,22.127-282.493,148.01-388.836c7.083-34.685,39.607-171.309,134.915-305.654
						c100.232-141.289,291.179-305.161,631.36-283.401c297.864,19.036,517.061,125.271,651.504,315.752
						c106.047,150.249,157.036,353.799,147.454,588.648c-6.624,162.312-70.789,291.614-190.71,384.312
						C2206.335,2490.956,2023.281,2540.954,1800.469,2540.954z M1663.506,1146c-228.022,0-407.058,89.158-532.778,265.544
						c-102.673,144.053-129.648,295.559-129.91,297.073c-0.898,5.22-3.65,9.956-7.744,13.313
						c-116.877,95.82-168.953,226.514-139.299,349.605c19.277,80.015,72.883,155.061,155.027,217.031
						c94.905,71.597,225.51,125.818,388.188,161.157c398.01,86.458,721.033,53.823,909.558-91.902
						c109.15-84.37,167.571-202.551,173.64-351.26c12.312-301.804-69.758-814.678-757.756-858.647
						C1702.441,1146.637,1682.798,1146,1663.506,1146z M979.111,1704.899h0.051H979.111z"/>
				</g>
			</g>
		</g>
	</g>
</g>
</svg>
